<?xml version="1.0" encoding="UTF-8" standalone="no"?>
<!DOCTYPE svg PUBLIC "-//W3C//DTD SVG 1.1//EN" "http://www.w3.org/Graphics/SVG/1.1/DTD/svg11.dtd">
<svg width="100%" height="100%" viewBox="0 0 320 138" version="1.1" xmlns="http://www.w3.org/2000/svg" xmlns:xlink="http://www.w3.org/1999/xlink" xml:space="preserve" xmlns:serif="http://www.serif.com/" style="fill-rule:evenodd;clip-rule:evenodd;stroke-miterlimit:2;">
    <g transform="matrix(0.0846154,0,0,0.084532,0,0)">
        <path d="M2466.87,812C2466.87,915.093 2383.3,998.667 2280.2,998.667C2177.11,998.667 2093.54,915.093 2093.54,812C2093.54,708.907 2177.11,625.333 2280.2,625.333C2383.3,625.333 2466.87,708.907 2466.87,812Z" style="fill:none;stroke:rgb(35,31,32);stroke-width:11.82px;"/>
        <path d="M2212.02,894.67L2227.41,891.92L2236.76,890.271C2249.96,897.419 2264.81,901.269 2280.2,901.269C2330.25,901.269 2370.94,860.576 2370.94,810.535C2370.94,760.494 2330.25,719.802 2280.2,719.802C2230.16,719.802 2189.47,760.494 2189.47,810.535C2189.47,828.682 2194.97,845.179 2203.77,859.476L2202.67,867.725L2200.47,883.672L2198.82,896.869L2212.02,894.67ZM2287.35,817.684L2265.36,817.684L2265.36,842.429L2284.05,842.429C2292.3,842.429 2303.3,839.68 2303.3,829.232C2303.3,829.232 2302.75,817.684 2287.35,817.684ZM2290.1,776.991L2265.36,776.991L2265.36,801.737L2284.6,801.737C2287.9,801.737 2302.2,800.637 2303.3,788.539C2303.3,788.539 2302.75,778.641 2290.1,776.991ZM2249.96,762.144L2290.1,762.144C2290.1,762.144 2318.7,761.044 2319.25,787.989C2319.25,787.989 2320.35,800.087 2307.15,807.786C2307.15,807.786 2321.45,813.835 2321.45,830.882C2321.45,830.882 2321.45,860.576 2286.25,857.277L2249.96,857.277C2248.31,857.277 2247.21,856.177 2247.21,854.527L2247.21,764.344C2247.21,763.244 2248.31,762.144 2249.96,762.144ZM2280.2,702.205C2340.14,702.205 2388.53,750.596 2388.53,810.535C2388.53,870.474 2340.14,918.866 2280.2,918.866C2263.71,918.866 2248.31,915.016 2234.56,908.967L2176.82,918.866L2184.52,861.676L2183.97,860.576C2176.27,845.729 2171.87,828.682 2171.87,810.535C2171.87,750.596 2220.27,702.205 2280.2,702.205Z" style="fill:rgb(35,31,32);"/>
        <path d="M1976.78,812C1976.78,915.093 1893.21,998.667 1790.11,998.667C1687.02,998.667 1603.45,915.093 1603.45,812C1603.45,708.907 1687.02,625.333 1790.11,625.333C1893.21,625.333 1976.78,708.907 1976.78,812Z" style="fill:none;stroke:rgb(35,31,32);stroke-width:11.82px;"/>
        <path d="M1855.91,749.961C1844.17,742.739 1835.14,729.198 1832.89,715.657C1832.43,712.497 1831.98,709.789 1831.98,706.629L1796.32,706.629L1796.32,848.813C1796.32,865.514 1782.78,879.055 1766.08,879.055C1760.67,879.055 1756.15,877.701 1751.64,875.444C1742.16,870.479 1735.39,860.097 1735.39,848.813C1735.39,832.112 1748.93,818.57 1766.08,818.57C1769.24,818.57 1771.95,819.022 1775.11,819.925L1775.11,783.815C1771.95,783.363 1769.24,782.912 1766.08,782.912C1729.52,782.912 1699.73,812.251 1699.73,848.813C1699.73,870.93 1711.01,890.791 1728.17,902.527C1739,909.749 1752.09,914.262 1766.08,914.262C1802.64,914.262 1831.98,884.923 1831.98,848.813L1831.98,774.787C1845.52,786.974 1863.58,792.842 1881.63,791.488L1881.63,755.829C1872.61,757.635 1863.58,754.927 1855.91,749.961Z" style="fill:rgb(35,31,32);"/>
        <path d="M996.259,812C996.259,915.093 912.686,998.667 809.593,998.667C706.499,998.667 622.926,915.093 622.926,812C622.926,708.907 706.499,625.333 809.593,625.333C912.686,625.333 996.259,708.907 996.259,812Z" style="fill:none;stroke:rgb(35,31,32);stroke-width:11.82px;"/>
        <path d="M911.249,856.236C911.249,867.369 903.046,868.541 894.843,861.51L867.891,837.487C862.032,832.8 862.032,832.214 862.032,825.183L862.032,798.231C862.032,791.2 862.032,790.614 867.891,785.927L894.843,761.904C903.046,754.873 911.249,756.045 911.249,767.763L911.249,856.236ZM822.19,755.459L720.241,755.459C713.795,755.459 707.937,760.733 707.937,767.763L707.937,836.901C707.937,854.479 721.998,868.541 739.576,868.541L841.525,868.541C847.97,868.541 853.829,862.682 853.829,855.651L853.829,787.099C853.829,769.521 839.767,755.459 822.19,755.459Z" style="fill:rgb(35,31,32);"/>
        <path d="M1486.35,812C1486.35,915.093 1402.78,998.667 1299.68,998.667C1196.59,998.667 1113.02,915.093 1113.02,812C1113.02,708.907 1196.59,625.333 1299.68,625.333C1402.78,625.333 1486.35,708.907 1486.35,812Z" style="fill:none;stroke:rgb(35,31,32);stroke-width:11.82px;"/>
        <path d="M1235.81,738.376C1256.64,736.709 1281.23,735.876 1299.98,735.876C1318.72,735.876 1342.89,736.709 1364.14,738.376C1388.72,740.459 1401.22,744.625 1404.56,769.208C1406.22,780.458 1407.06,795.874 1407.06,811.707C1407.06,827.54 1406.22,843.373 1404.56,854.206C1401.22,879.205 1388.72,882.955 1364.14,885.038C1342.89,887.122 1318.72,887.538 1299.98,887.538C1281.23,887.538 1256.64,887.122 1235.81,885.038C1211.23,882.955 1198.31,879.205 1194.98,854.206C1193.73,843.373 1192.9,827.54 1192.9,811.707C1192.9,795.874 1193.73,780.458 1194.98,769.208C1198.31,744.625 1211.23,740.459 1235.81,738.376Z" style="fill:rgb(35,31,32);"/>
        <path d="M1278.31,779.625L1334.14,811.707L1278.31,844.206L1278.31,779.625Z" style="fill:white;"/>
        <path d="M507.022,812C507.022,915.093 423.448,998.667 320.355,998.667C217.262,998.667 133.688,915.093 133.688,812C133.688,708.907 217.262,625.333 320.355,625.333C423.448,625.333 507.022,708.907 507.022,812Z" style="fill:none;stroke:rgb(35,31,32);stroke-width:11.82px;"/>
        <path d="M223.983,808.967C267.437,790.744 320.002,764.812 365.559,747.29C407.612,731.871 406.911,736.076 400.603,778.129C395.697,811.771 390.09,845.413 384.483,879.055C382.38,895.174 373.97,903.585 356.448,893.773L301.779,855.225C294.07,848.917 296.173,844.011 302.481,837.703L352.943,790.044C366.26,776.727 359.952,771.821 344.533,782.334L275.146,829.292C265.334,836.301 254.821,836.301 243.607,832.797L219.777,824.386C204.358,818.779 216.273,812.472 223.983,808.967Z" style="fill:rgb(35,31,32);"/>
        <g transform="matrix(1,0,0,1,0,10.4585)">
            <path d="M507.022,328.17C507.022,431.264 423.448,514.837 320.355,514.837C217.262,514.837 133.688,431.264 133.688,328.17C133.688,225.077 217.262,141.504 320.355,141.504C423.448,141.504 507.022,225.077 507.022,328.17Z" style="fill:none;stroke:white;stroke-opacity:0.33;stroke-width:11.82px;"/>
            <g transform="matrix(1,0,0,1,0.589327,0)">
                <path d="M283.78,448.61L328.553,448.61L328.553,345.325L361.625,345.325L368.239,303.603L328.553,303.603L328.553,272.058C328.553,260.356 339.747,253.742 350.432,253.742L369.766,253.742L369.766,219.144L335.168,217.617C302.096,215.582 283.78,241.531 283.78,272.567L283.78,303.603L246.129,303.603L246.129,345.325L283.78,345.325L283.78,448.61Z" style="fill:white;"/>
            </g>
        </g>
        <g>
            <g transform="matrix(1,0,0,1,509.616,10.4585)">
                <path d="M507.022,328.17C507.022,431.264 423.448,514.837 320.355,514.837C217.262,514.837 133.688,431.264 133.688,328.17C133.688,225.077 217.262,141.504 320.355,141.504C423.448,141.504 507.022,225.077 507.022,328.17Z" style="fill:none;stroke:white;stroke-opacity:0.69;stroke-width:11.82px;"/>
            </g>
            <g transform="matrix(1,0,0,1,510.205,10.4585)">
                <path d="M283.78,448.61L328.553,448.61L328.553,345.325L361.625,345.325L368.239,303.603L328.553,303.603L328.553,272.058C328.553,260.356 339.747,253.742 350.432,253.742L369.766,253.742L369.766,219.144L335.168,217.617C302.096,215.582 283.78,241.531 283.78,272.567L283.78,303.603L246.129,303.603L246.129,345.325L283.78,345.325L283.78,448.61Z" style="fill:white;"/>
            </g>
        </g>
        <g transform="matrix(1,0,0,1,636.46,520.967)">
            <path d="M2466.87,328.17C2466.87,431.264 2383.3,514.837 2280.2,514.837C2177.11,514.837 2093.54,431.264 2093.54,328.17C2093.54,225.077 2177.11,141.504 2280.2,141.504C2383.3,141.504 2466.87,225.077 2466.87,328.17Z" style="fill:none;stroke:rgb(35,31,32);stroke-width:11.82px;"/>
        </g>
        <g transform="matrix(1,0,0,1,636.46,520.967)">
            <path d="M2280.2,213.163C2344.58,213.163 2396.3,263.822 2396.3,326.09C2396.3,388.359 2344.58,439.018 2280.2,439.018C2267.54,439.018 2255.4,436.907 2243.79,433.213L2222.69,442.184C2210.55,447.461 2205.8,442.712 2205.8,427.937L2205.8,413.161C2180.47,392.053 2164.11,360.919 2164.11,326.09C2164.11,263.822 2216.35,213.163 2280.2,213.163Z" style="fill:rgb(35,31,32);"/>
        </g>
        <g transform="matrix(1,0,0,1,636.46,520.967)">
            <path d="M2213.71,354.586L2241.68,311.843C2245.38,305.51 2249.07,299.178 2256.99,297.595C2262.79,296.012 2267.54,298.122 2272.29,301.816L2297.09,320.286C2301.31,323.452 2302.37,323.452 2306.59,320.286L2338.78,296.539C2347.22,289.679 2354.61,293.901 2348.81,303.399L2318.2,352.475C2318.2,352.475 2311.34,363.557 2301.84,363.029C2301.84,363.029 2294.98,363.029 2290.23,358.808L2263.85,338.228C2260.68,336.117 2259.1,336.117 2255.4,338.755L2222.16,364.085C2212.66,371.473 2206.85,365.14 2213.71,354.586Z" style="fill:white;"/>
        </g>
        <g transform="matrix(1,0,0,1,531.818,0)">
            <path d="M996.259,328.17C996.259,431.264 912.686,514.837 809.593,514.837C706.499,514.837 622.926,431.264 622.926,328.17C622.926,225.077 706.499,141.504 809.593,141.504C912.686,141.504 996.259,225.077 996.259,328.17Z" style="fill:none;stroke:rgb(35,31,32);stroke-width:11.82px;"/>
        </g>
        <g transform="matrix(1,0,0,1,531.818,0)">
            <path d="M760.092,239.06L859.093,239.06C881.381,239.06 899.522,257.201 899.522,279.489L899.522,377.972C899.522,400.26 881.381,418.401 859.093,418.401L760.092,418.401C737.804,418.401 719.663,400.26 719.663,377.972L719.663,279.489C719.663,257.201 737.804,239.06 760.092,239.06ZM809.333,289.856L809.852,289.856C831.103,289.856 848.726,307.479 848.726,328.73C848.726,350.5 831.103,368.123 809.852,368.123L809.333,368.123C788.082,368.123 770.459,350.5 770.459,328.73C770.459,307.479 788.082,289.856 809.333,289.856ZM809.333,269.641L809.852,269.641C841.988,269.641 868.941,296.594 868.941,328.73C868.941,361.385 841.988,387.82 809.852,387.82L809.333,387.82C777.197,387.82 750.762,361.385 750.762,328.73C750.762,296.594 777.197,269.641 809.333,269.641ZM867.904,258.238C874.643,258.238 880.344,263.94 880.344,270.678C880.344,277.416 874.643,283.118 867.904,283.118C860.648,283.118 855.464,277.416 855.464,270.678C855.464,263.94 860.648,258.238 867.904,258.238ZM759.574,220.4L859.611,220.4C891.747,220.4 918.182,246.835 918.182,278.971L918.182,378.49C918.182,410.626 891.747,437.061 859.611,437.061L759.574,437.061C727.438,437.061 701.003,410.626 701.003,378.49L701.003,278.971C701.003,246.835 727.438,220.4 759.574,220.4Z" style="fill:rgb(35,31,32);"/>
        </g>
        <path d="M1486.35,1295.27C1486.35,1398.36 1402.78,1481.94 1299.68,1481.94C1196.59,1481.94 1113.02,1398.36 1113.02,1295.27C1113.02,1192.18 1196.59,1108.6 1299.68,1108.6C1402.78,1108.6 1486.35,1192.18 1486.35,1295.27Z" style="fill:none;stroke:rgb(35,31,32);stroke-width:11.82px;"/>
        <path d="M1301.17,1200.08C1359.01,1204.44 1354.1,1245.92 1353.01,1279.21C1353.01,1279.21 1356.29,1280.3 1368.29,1273.75C1368.29,1273.75 1374.84,1269.39 1379.75,1274.3C1379.75,1274.3 1385.76,1280.85 1373.75,1287.4L1354.1,1301.59C1354.1,1301.59 1354.1,1329.96 1399.95,1351.25C1399.95,1351.25 1398.85,1356.16 1376.48,1360.53C1376.48,1360.53 1372.66,1361.62 1370.48,1370.35C1368.84,1375.81 1357.92,1373.62 1352.47,1373.62C1352.47,1373.62 1341.01,1373.62 1329,1383.99C1329,1383.99 1316.99,1391.63 1301.17,1392.73C1285.34,1391.63 1273.88,1383.99 1273.88,1383.99C1261.87,1373.62 1249.87,1373.62 1249.87,1373.62C1244.95,1373.62 1233.49,1375.81 1232.4,1370.35C1230.22,1361.62 1225.85,1360.53 1225.85,1360.53C1203.48,1356.16 1202.39,1351.25 1202.39,1351.25C1248.23,1329.96 1248.23,1301.59 1248.23,1301.59L1228.58,1287.4C1217.12,1280.85 1223.12,1274.3 1223.12,1274.3C1228.04,1269.39 1234.58,1273.75 1234.58,1273.75C1246.59,1280.3 1249.87,1279.21 1249.87,1279.21C1248.23,1245.92 1243.86,1204.44 1301.17,1200.08Z" style="fill:rgb(35,31,32);"/>
        <g transform="matrix(1,0,0,1,1075.45,0)">
            <path d="M1976.78,328.17C1976.78,431.264 1893.21,514.837 1790.11,514.837C1687.02,514.837 1603.45,431.264 1603.45,328.17C1603.45,225.077 1687.02,141.504 1790.11,141.504C1893.21,141.504 1976.78,225.077 1976.78,328.17Z" style="fill:none;stroke:rgb(35,31,32);stroke-width:11.82px;"/>
        </g>
        <g transform="matrix(1,0,0,1,1075.45,0)">
            <path d="M1721.93,412.865L1737.32,410.116L1746.67,408.466C1759.87,415.615 1774.17,419.464 1790.11,419.464C1861.39,419.464 1913.7,336.91 1856.47,262.373C1781.93,205.145 1699.38,257.455 1699.38,328.73C1699.38,346.877 1704.88,363.374 1713.68,377.672L1712.58,385.92L1710.38,402.417L1708.73,415.065L1721.93,412.865ZM1790.11,220.4C1850.05,220.4 1898.44,268.791 1898.44,328.73C1898.44,388.67 1850.05,437.061 1790.11,437.061C1773.62,437.061 1758.22,433.761 1744.47,427.163L1686.73,437.061L1694.43,379.871L1693.88,378.771C1686.18,363.924 1681.78,346.877 1681.78,328.73C1681.78,268.791 1730.18,220.4 1790.11,220.4ZM1751.62,279.24C1757.67,275.39 1761.52,278.14 1763.72,284.188L1769.22,298.486C1769.22,298.486 1773.07,306.185 1763.17,313.883C1761.52,314.983 1761.52,314.983 1762.07,317.732C1764.27,324.331 1773.07,344.128 1801.11,359.525C1803.86,361.175 1804.41,361.175 1807.16,358.975C1809.36,356.775 1812.11,354.026 1814.31,351.826C1819.26,347.427 1822.01,345.777 1826.41,349.077C1829.71,351.276 1833.01,354.026 1836.31,356.225C1839.61,358.975 1845.1,362.275 1839.61,368.873L1834.66,374.922C1827.51,383.72 1821.46,384.27 1812.11,382.071C1776.37,372.723 1749.97,347.427 1738.42,311.683C1734.57,297.936 1740.07,286.388 1751.62,279.24Z" style="fill:rgb(35,31,32);"/>
        </g>
        <path d="M996.259,1295.27C996.259,1398.36 912.686,1481.94 809.593,1481.94C706.499,1481.94 622.926,1398.36 622.926,1295.27C622.926,1192.18 706.499,1108.6 809.593,1108.6C912.686,1108.6 996.259,1192.18 996.259,1295.27Z" style="fill:none;stroke:rgb(35,31,32);stroke-width:11.82px;"/>
        <path d="M809.3,1197.61C866.193,1197.61 912.693,1235.36 912.693,1281.31C912.693,1305.93 900.111,1327.26 879.323,1342.58C836.105,1379.78 812.035,1390.17 812.035,1390.17C802.735,1395.1 801.094,1392.36 802.188,1383.61C803.282,1378.14 804.376,1371.03 804.376,1371.03C805.47,1366.1 800,1365.01 797.811,1364.46L796.717,1364.46C745.294,1359.54 705.906,1323.98 705.906,1281.31C705.906,1235.36 752.406,1197.61 809.3,1197.61Z" style="fill:rgb(35,31,32);"/>
        <path d="M859.081,1297.17L859.081,1286.23L879.87,1286.23L879.87,1278.03L859.081,1278.03L859.081,1267.63L879.87,1267.63L879.87,1258.88L849.235,1258.88L849.235,1305.38L879.87,1305.38L879.87,1297.17L859.081,1297.17ZM828.994,1258.88L828.994,1287.33L807.111,1258.88L798.905,1258.88L798.905,1305.38L808.753,1305.38L808.753,1277.48L830.635,1305.38L838.841,1305.38L838.841,1258.88L828.994,1258.88ZM778.665,1305.38L788.511,1305.38L788.511,1258.88L778.665,1258.88L778.665,1305.38ZM740.918,1305.38L773.194,1305.38L773.194,1296.63L750.765,1296.63L750.765,1258.88L740.918,1258.88L740.918,1305.38Z" style="fill:white;"/>
        <path d="M507.022,1295.27C507.022,1398.36 423.448,1481.94 320.355,1481.94C217.262,1481.94 133.688,1398.36 133.688,1295.27C133.688,1192.18 217.262,1108.6 320.355,1108.6C423.448,1108.6 507.022,1192.18 507.022,1295.27Z" style="fill:none;stroke:rgb(35,31,32);stroke-width:11.82px;"/>
        <path d="M286.767,1261.95L323.406,1261.95L323.406,1279.35C331.191,1267.9 344.015,1260.57 358.67,1260.57L368.746,1260.57C392.103,1260.57 410.88,1279.81 410.88,1302.71L410.88,1386.52L374.242,1386.52L374.242,1319.2C373.784,1305 364.166,1294.01 349.969,1294.01C335.771,1294.01 323.864,1305 323.406,1319.2L323.406,1386.52L286.767,1386.52L286.767,1261.95ZM246.007,1198.75C258.372,1198.75 268.448,1208.82 268.448,1221.19C268.448,1233.55 258.372,1243.63 246.007,1243.63C233.641,1243.63 224.023,1233.55 224.023,1221.19C224.023,1208.82 233.641,1198.75 246.007,1198.75ZM227.687,1261.95L264.784,1261.95L264.784,1386.52L227.687,1386.52L227.687,1261.95Z" style="fill:rgb(35,31,32);"/>
        <path d="M2466.87,1295.27C2466.87,1398.36 2383.3,1481.94 2280.2,1481.94C2177.11,1481.94 2093.54,1398.36 2093.54,1295.27C2093.54,1192.18 2177.11,1108.6 2280.2,1108.6C2383.3,1108.6 2466.87,1192.18 2466.87,1295.27Z" style="fill:none;stroke:rgb(35,31,32);stroke-width:11.82px;"/>
        <path d="M2234.68,1186.94C2269.23,1186.94 2297.21,1214.91 2297.21,1249.47C2297.21,1284.03 2269.23,1312 2234.68,1312C2200.12,1312 2172.15,1284.03 2172.15,1249.47C2172.15,1214.91 2200.12,1186.94 2234.68,1186.94Z" style="fill:rgb(35,31,32);"/>
        <path d="M2329.57,1403.6C2297.21,1403.6 2270.33,1377.27 2270.33,1344.91C2270.33,1312.55 2297.21,1285.67 2329.57,1285.67C2361.93,1285.67 2388.26,1312.55 2388.26,1344.91C2388.26,1377.27 2361.93,1403.6 2329.57,1403.6Z" style="fill:rgb(35,31,32);"/>
        <path d="M2281.3,1191.33C2339.44,1191.33 2386.62,1238.5 2386.62,1296.09C2386.62,1354.23 2339.44,1401.41 2281.3,1401.41C2223.71,1401.41 2176.54,1354.23 2176.54,1296.09C2176.54,1238.5 2223.71,1191.33 2281.3,1191.33Z" style="fill:rgb(35,31,32);"/>
        <path d="M2270.33,1303.22C2278.56,1306.51 2286.24,1308.71 2292.27,1314.74C2302.14,1324.61 2294.47,1336.13 2279.11,1336.13C2267.04,1336.68 2246.75,1320.78 2240.71,1333.94C2231.94,1352.59 2273.62,1355.33 2287.88,1353.69C2304.34,1351.49 2314.21,1344.91 2318.05,1332.29C2328.47,1297.74 2295.01,1292.25 2272.53,1280.19C2264.85,1275.8 2259.91,1268.12 2264.85,1262.08C2273.62,1250.57 2290.08,1256.6 2301.6,1259.89C2322.44,1265.92 2326.83,1233.56 2275.82,1237.4C2258.26,1239.05 2246.2,1245.63 2241.81,1259.34C2234.68,1280.73 2250.59,1295.54 2270.33,1303.22Z" style="fill:white;"/>
        <g transform="matrix(1,0,0,1,0,0.612158)">
            <g transform="matrix(1,0,0,1,531.818,0)">
                <path d="M1486.35,328.17C1486.35,431.264 1402.78,514.837 1299.68,514.837C1196.59,514.837 1113.02,431.264 1113.02,328.17C1113.02,225.077 1196.59,141.504 1299.68,141.504C1402.78,141.504 1486.35,225.077 1486.35,328.17Z" style="fill:none;stroke:white;stroke-opacity:0.33;stroke-width:11.82px;"/>
            </g>
            <g transform="matrix(1,0,0,1,531.818,0)">
                <path d="M1301.73,297.147C1292.96,250.941 1348.52,223.452 1381.27,256.79C1381.27,256.79 1395.9,252.696 1408.76,244.507C1408.76,244.507 1404.08,260.299 1388.29,270.242C1388.29,270.242 1405.84,267.903 1413.44,263.224C1413.44,263.224 1405.84,279.015 1391.8,284.864C1399.4,390.728 1285.35,455.065 1192.94,402.426C1192.94,402.426 1238.56,404.765 1257.86,382.54C1257.86,382.54 1229.79,384.879 1215.75,350.956C1215.75,350.956 1226.28,355.05 1236.81,349.786C1236.81,349.786 1204.05,344.522 1201.13,305.335C1201.13,305.335 1211.66,313.524 1223.36,310.599C1223.36,310.599 1187.09,288.958 1207.56,249.771C1207.56,249.771 1246.17,298.901 1301.73,297.147Z" style="fill:white;"/>
            </g>
        </g>
        <g>
            <g transform="matrix(1,0,0,1,992.978,0.612158)">
                <path d="M1486.35,328.17C1486.35,431.264 1402.78,514.837 1299.68,514.837C1196.59,514.837 1113.02,431.264 1113.02,328.17C1113.02,225.077 1196.59,141.504 1299.68,141.504C1402.78,141.504 1486.35,225.077 1486.35,328.17Z" style="fill:none;stroke:white;stroke-opacity:0.6;stroke-width:11.82px;"/>
            </g>
            <g transform="matrix(1,0,0,1,992.978,0.612158)">
                <path d="M1301.73,297.147C1292.96,250.941 1348.52,223.452 1381.27,256.79C1381.27,256.79 1395.9,252.696 1408.76,244.507C1408.76,244.507 1404.08,260.299 1388.29,270.242C1388.29,270.242 1405.84,267.903 1413.44,263.224C1413.44,263.224 1405.84,279.015 1391.8,284.864C1399.4,390.728 1285.35,455.065 1192.94,402.426C1192.94,402.426 1238.56,404.765 1257.86,382.54C1257.86,382.54 1229.79,384.879 1215.75,350.956C1215.75,350.956 1226.28,355.05 1236.81,349.786C1236.81,349.786 1204.05,344.522 1201.13,305.335C1201.13,305.335 1211.66,313.524 1223.36,310.599C1223.36,310.599 1187.09,288.958 1207.56,249.771C1207.56,249.771 1246.17,298.901 1301.73,297.147Z" style="fill:white;"/>
            </g>
        </g>
        <path d="M1976.78,1295.27C1976.78,1398.36 1893.21,1481.94 1790.11,1481.94C1687.02,1481.94 1603.45,1398.36 1603.45,1295.27C1603.45,1192.18 1687.02,1108.6 1790.11,1108.6C1893.21,1108.6 1976.78,1192.18 1976.78,1295.27Z" style="fill:none;stroke:rgb(35,31,32);stroke-width:11.82px;"/>
        <path d="M1692.72,1248.99C1698.71,1236.45 1706.89,1225 1717.8,1215.18C1728.7,1205.37 1741.25,1198.28 1754.33,1193.37C1767.96,1189.01 1782.14,1186.83 1796.32,1187.37C1809.95,1188.46 1824.13,1191.73 1837.22,1198.28C1849.76,1204.27 1861.21,1212.45 1871.02,1223.36C1880.84,1234.27 1887.93,1246.81 1892.29,1259.89C1897.2,1273.53 1898.83,1287.7 1898.29,1301.88C1897.2,1315.51 1893.93,1329.69 1887.93,1342.78C1881.93,1355.32 1873.21,1366.77 1862.3,1376.58C1851.39,1386.4 1838.85,1393.49 1825.77,1397.85C1812.68,1402.76 1797.96,1404.39 1784.32,1403.85C1770.15,1402.76 1755.97,1399.49 1743.43,1393.49C1730.89,1387.49 1719.43,1378.77 1709.62,1367.86C1699.8,1356.95 1692.72,1344.41 1687.81,1331.33C1683.45,1318.24 1681.26,1303.52 1681.81,1289.88C1682.9,1275.71 1686.17,1261.53 1692.72,1248.99ZM1748.88,1269.71C1748.88,1264.8 1748.88,1260.44 1749.43,1255.53C1751.06,1238.63 1756.51,1222.81 1764.15,1208.09C1778.33,1216.27 1791.41,1226.63 1802.32,1239.72C1805.04,1243.54 1807.77,1247.35 1810.5,1251.71C1801.23,1256.62 1791.41,1260.98 1781.05,1264.26C1770.15,1267.53 1759.24,1269.16 1748.88,1269.71ZM1769.6,1340.05C1778.87,1334.6 1788.69,1330.24 1799.59,1326.96C1809.95,1323.69 1820.86,1322.06 1831.22,1321.51C1831.22,1326.42 1831.22,1331.33 1830.67,1335.69C1829.04,1352.59 1824.13,1368.41 1816.5,1383.13C1801.77,1375.49 1788.69,1364.59 1778.33,1351.5C1775.05,1347.68 1772.33,1343.87 1769.6,1340.05ZM1830.67,1310.06C1819.22,1310.61 1807.77,1312.24 1796.32,1315.51C1784.87,1319.33 1773.96,1324.24 1764.15,1329.69C1760.33,1322.6 1757.06,1314.42 1754.33,1306.24C1752.15,1298.06 1750.52,1289.88 1749.43,1281.16C1760.88,1281.16 1772.87,1278.98 1784.32,1275.71C1795.77,1272.44 1806.68,1267.53 1816.5,1261.53C1820.31,1269.16 1823.58,1276.8 1825.77,1284.98C1828.49,1293.16 1830.13,1301.88 1830.67,1310.06ZM1848.67,1217.36C1843.21,1213.54 1838.31,1210.27 1832.31,1207.55C1820.86,1202.09 1808.32,1198.82 1795.77,1198.28C1788.14,1197.73 1779.96,1198.28 1772.87,1199.37C1787.05,1208.09 1800.14,1219 1811.04,1232.63C1814.31,1236.45 1817.59,1240.81 1820.31,1245.17C1821.95,1243.54 1824.13,1241.9 1825.77,1240.81C1834.49,1233.72 1842.12,1226.09 1848.67,1217.36ZM1885.2,1318.24C1886.29,1312.79 1887.38,1306.79 1887.93,1301.34C1888.47,1288.25 1886.84,1275.71 1882.47,1263.17C1878.11,1251.71 1871.57,1240.26 1862.84,1230.45C1861.21,1228.27 1859.03,1226.63 1857.39,1224.45C1850.3,1233.72 1842.12,1242.44 1833.4,1249.53C1830.67,1251.71 1828.49,1253.35 1826.31,1254.99C1830.67,1263.71 1834.49,1272.44 1837.22,1281.71C1839.94,1290.97 1841.58,1300.79 1842.67,1310.06C1845.4,1310.06 1848.67,1310.06 1851.39,1310.61C1862.84,1311.7 1874.3,1314.42 1885.2,1318.24ZM1827.95,1385.85C1837.76,1381.49 1847.03,1376.04 1855.21,1368.41C1865.03,1359.68 1872.66,1349.32 1878.11,1337.87C1879.75,1335.14 1880.84,1332.42 1881.93,1329.69C1871.57,1325.87 1861.21,1323.15 1850.3,1322.06C1847.58,1322.06 1845.4,1321.51 1843.21,1321.51C1843.21,1326.96 1842.67,1331.87 1842.12,1336.78C1840.49,1354.23 1835.58,1370.59 1827.95,1385.85ZM1731.98,1374.4C1736.88,1377.68 1742.34,1380.95 1747.79,1383.67C1759.24,1389.13 1771.78,1392.4 1784.87,1393.49C1792.5,1393.49 1800.14,1393.49 1807.77,1391.85C1793.05,1383.13 1779.96,1372.22 1769.06,1358.59C1765.78,1354.77 1763.06,1350.41 1760.33,1346.05C1758.15,1347.68 1755.97,1349.32 1754.33,1350.96C1745.61,1357.5 1738.52,1365.68 1731.98,1374.4ZM1694.9,1272.98C1693.81,1278.98 1692.72,1284.43 1692.72,1290.43C1691.63,1302.97 1693.81,1316.06 1697.62,1328.05C1701.99,1340.05 1708.53,1350.96 1717.25,1360.77C1718.89,1362.95 1721.07,1364.59 1722.71,1366.77C1729.8,1357.5 1737.97,1349.32 1747.24,1341.69C1749.43,1340.05 1751.61,1337.87 1754.33,1336.23C1749.97,1328.05 1746.15,1318.78 1743.43,1309.51C1740.7,1300.24 1738.52,1290.97 1737.97,1281.16C1734.7,1281.16 1731.98,1281.16 1728.7,1280.61C1717.25,1279.52 1705.8,1276.8 1694.9,1272.98ZM1724.89,1222.81C1715.07,1231.54 1707.44,1241.9 1701.99,1253.35C1700.9,1256.08 1699.26,1258.8 1698.17,1262.07C1708.53,1265.35 1718.89,1268.07 1729.8,1269.16C1732.52,1269.71 1734.7,1269.71 1737.43,1269.71C1737.43,1264.8 1737.43,1259.35 1737.97,1254.44C1739.61,1236.99 1744.52,1220.63 1752.15,1205.37C1742.34,1209.73 1733.07,1215.18 1724.89,1222.81Z" style="fill:rgb(35,31,32);"/>
        <g transform="matrix(11.8182,0,0,11.8298,-325.106,212.456)">
            <text x="235.386px" y="106.051px" style="font-family:'ArialMT', 'Arial', sans-serif;font-size:7px;">Draw what you need, or customize</text>
            <text x="235.386px" y="113.28px" style="font-family:'ArialMT', 'Arial', sans-serif;font-size:7px;">the icons as you like.</text>
        </g>
    </g>
</svg>
