<?xml version="1.0" encoding="utf-8"?>
<!-- Generator: Adobe Illustrator 18.0.0, SVG Export Plug-In . SVG Version: 6.00 Build 0)  -->
<!DOCTYPE svg PUBLIC "-//W3C//DTD SVG 1.1//EN" "http://www.w3.org/Graphics/SVG/1.1/DTD/svg11.dtd">
<svg version="1.1" id="Ebene_1" xmlns="http://www.w3.org/2000/svg" xmlns:xlink="http://www.w3.org/1999/xlink" x="0px" y="0px"
	 viewBox="49.4 0 21 21" enable-background="new 49.4 0 21 21" xml:space="preserve">
<g>
	<path fill="#3087CC" d="M64.4,13l-2,2C62.4,15,62.3,15,62.1,15c-0.1,0-0.2,0-0.3-0.1L60,13.1l-1.8,1.8C58.1,15,58,15,57.9,15
		c-0.1,0-0.2,0-0.3-0.1l-2-2c-0.1-0.1-0.1-0.2-0.1-0.3c0-0.1,0-0.2,0.1-0.3l1.8-1.8l-1.8-1.8c-0.1-0.1-0.1-0.2-0.1-0.3
		c0-0.1,0-0.2,0.1-0.3l2-2C57.6,6,57.7,6,57.9,6c0.1,0,0.2,0,0.3,0.1L60,7.9l1.8-1.8C61.9,6,62,6,62.1,6c0.1,0,0.2,0,0.3,0.1l2,2
		c0.1,0.1,0.1,0.2,0.1,0.3c0,0.1,0,0.2-0.1,0.3l-1.8,1.8l1.8,1.8c0.1,0.1,0.1,0.2,0.1,0.3C64.5,12.8,64.5,12.9,64.4,13L64.4,13z
		 M67.3,10.5c0-1.3-0.3-2.5-1-3.7s-1.5-2-2.7-2.7c-1.1-0.7-2.3-1-3.7-1c-1.3,0-2.5,0.3-3.7,1s-2,1.5-2.7,2.7c-0.7,1.1-1,2.3-1,3.7
		s0.3,2.5,1,3.7s1.5,2,2.7,2.7c1.1,0.7,2.3,1,3.7,1c1.3,0,2.5-0.3,3.7-1c1.1-0.7,2-1.5,2.7-2.7S67.3,11.8,67.3,10.5z M70.3,10.5
		c0,1.9-0.5,3.6-1.4,5.2c-0.9,1.6-2.2,2.8-3.7,3.7c-1.6,0.9-3.3,1.4-5.2,1.4c-1.9,0-3.6-0.5-5.2-1.4c-1.6-0.9-2.8-2.2-3.7-3.7
		c-0.9-1.6-1.4-3.3-1.4-5.2s0.5-3.6,1.4-5.2c0.9-1.6,2.2-2.8,3.7-3.7c1.6-0.9,3.3-1.4,5.2-1.4c1.9,0,3.6,0.5,5.2,1.4
		c1.6,0.9,2.8,2.2,3.7,3.7C69.8,6.9,70.3,8.6,70.3,10.5L70.3,10.5z"/>
</g>
</svg>
