<?xml version="1.0" encoding="UTF-8" standalone="no"?>
<!DOCTYPE svg PUBLIC "-//W3C//DTD SVG 1.1//EN" "http://www.w3.org/Graphics/SVG/1.1/DTD/svg11.dtd">
<svg width="100%" height="100%" viewBox="0 0 500 300" version="1.1" xmlns="http://www.w3.org/2000/svg" xmlns:xlink="http://www.w3.org/1999/xlink" xml:space="preserve" xmlns:serif="http://www.serif.com/" style="fill-rule:evenodd;clip-rule:evenodd;stroke-linejoin:round;stroke-miterlimit:2;">
    <g id="svgg" transform="matrix(1.24688,0,0,1.24688,0,-52.9449)">
        <g transform="matrix(0.921186,0,0,0.921186,15.7899,43.8816)">
            <g id="path6" transform="matrix(0.561754,0,0,0.561754,85.7761,9.90131)">
                <path d="M224.952,85.418C219.123,86.398 214.101,88.831 209.289,93.007C206.558,95.378 194.11,108.187 194.11,108.627C194.11,108.808 204.942,119.791 218.182,133.033C232.582,147.437 243.056,157.699 243.056,157.98C243.056,158.26 233.032,168.128 218.216,183.028C201.28,200.06 193.176,208.178 193.176,208.54C193.176,209.254 207.087,223.42 209.965,225.594C220.512,233.564 234.783,234.239 246.351,226.694C248.394,225.361 283.777,190.457 288.666,184.951C301.013,171.046 302.238,149.883 291.595,134.343C288.006,129.103 253.531,94.609 247.887,90.611C241.498,86.085 232.758,84.106 224.952,85.418M272.93,115.557C280.441,123.057 287.549,130.274 288.642,131.267C299.621,141.249 303.614,164.539 290.971,182.173C289.141,184.725 252.302,221.199 248.05,224.761C235.74,235.075 220.512,233.564 209.965,225.594C207.087,223.42 192.714,208.844 193.002,208.237C193.133,207.96 205.238,196.594 218.683,182.977C232.128,169.361 246.721,154.937 249.624,151.98C252.528,149.022 255.218,145.343 256.175,144.111C265.148,132.564 267.871,118.052 261.253,104.862C260.483,103.329 259.061,101.454 259.248,101.454C259.422,101.454 265.418,108.057 272.93,115.557Z" style="fill:rgb(0,97,204);"/>
            </g>
            <g id="path2" transform="matrix(0.561754,0,0,0.561754,85.7761,9.90131)">
                <path d="M117.385,112.228C103.558,126.091 97.48,132.969 96.311,134.546C85.202,149.535 85.416,169.625 96.838,184.434C100.285,188.904 135.21,224.371 138.551,226.64C147.748,232.885 159.874,233.731 169.804,228.821C174.343,226.576 177.197,224.135 186.244,214.759L192.279,208.512L191.702,208.006C191.495,207.617 180.659,196.639 167.622,183.611C151.65,167.651 143.517,159.353 143.517,159C143.517,158.649 193.218,108.963 193.218,108.963C193.218,108.963 130.943,170.975 128.922,173.835C120.726,185.438 119.766,200.459 126.513,213.266C127.641,215.406 128.805,216.713 127.719,215.94C126.287,214.92 98.079,185.84 96.617,183.904C86.15,170.046 85.656,150.856 95.391,136.301C97.58,133.029 101.58,128.598 120.918,109.156C130.2,99.824 138.145,92.391 138.084,92.391C138.023,92.391 128.578,101.207 117.586,112.228M184.635,99.232C188.225,102.823 191.219,105.762 191.289,105.762C191.36,105.762 188.481,102.823 184.891,99.232C181.302,95.64 178.307,92.702 178.237,92.702C178.166,92.702 181.046,95.64 184.635,99.232" style="fill:rgb(248,81,37);"/>
            </g>
            <g id="path3" transform="matrix(0.561754,0,0,0.561754,85.7761,9.90131)">
                <path d="M153.009,85.397C147.666,86.249 143.102,88.157 138.968,91.269C134.371,94.729 97.639,132.341 94.99,136.301C85.255,150.856 85.749,170.046 96.216,183.904C97.678,185.84 126.488,215.321 127.92,216.341C129.006,217.114 127.641,215.406 126.513,213.266C119.765,200.459 120.608,186.242 128.807,174.579C130.77,171.786 135.352,167.088 169.261,133.096C182.962,119.362 193.251,108.853 193.3,108.544C193.41,107.852 179.409,93.71 176.255,91.326C169.662,86.344 160.971,84.127 153.009,85.397" style="fill:rgb(250,141,1);fill-opacity:0.82;"/>
            </g>
            <g id="path5" transform="matrix(0.561754,0,0,0.561754,85.7761,9.90131)">
                <path d="M260.652,104.261C267.27,117.451 264.947,132.363 255.974,143.91C255.017,145.142 252.098,148.822 249.624,151.378C249.588,151.416 247.339,153.712 245.614,155.589C244.556,156.74 243.008,157.995 243.008,157.995L192.682,208.521C192.682,208.521 206.803,223.28 210.326,225.965C220.5,233.718 235.057,234.092 245.725,226.947C246.634,226.339 248.371,224.875 249.223,224.16C253.472,220.595 288.12,186.065 290.927,182.256C296.645,174.495 299.292,165.168 298.922,155.979C298.562,147.039 295.345,138.231 289.323,131.128C287.052,128.449 256.853,98.446 256.441,98.446C256.254,98.446 259.918,102.798 260.652,104.261Z" style="fill:rgb(0,186,255);fill-opacity:0.81;"/>
            </g>
        </g>
        <g transform="matrix(2.86196,0,0,2.86196,-259.734,-18.6453)">
            <g transform="matrix(1,0,0,1,0.560458,0)">
                <path d="M118.66,80.772C120.156,81.084 121.358,81.56 122.266,82.2C123.174,82.84 123.628,83.756 123.628,84.948C123.628,85.676 123.442,86.342 123.07,86.946C122.698,87.55 122.156,88.03 121.444,88.386C120.732,88.742 119.888,88.92 118.912,88.92C118.008,88.92 117.162,88.788 116.374,88.524C115.586,88.26 114.792,87.864 113.992,87.336C113.824,87.224 113.692,87.08 113.596,86.904C113.5,86.728 113.452,86.536 113.452,86.328C113.452,85.992 113.57,85.706 113.806,85.47C114.042,85.234 114.328,85.116 114.664,85.116C114.92,85.116 115.14,85.18 115.324,85.308L115.324,85.296C115.932,85.696 116.516,85.996 117.076,86.196C117.636,86.396 118.248,86.496 118.912,86.496C119.704,86.496 120.282,86.348 120.646,86.052C121.01,85.756 121.192,85.388 121.192,84.948C121.192,84.628 121.076,84.364 120.844,84.156C120.612,83.948 120.32,83.782 119.968,83.658C119.616,83.534 119.128,83.396 118.504,83.244C117.68,83.036 117.002,82.836 116.47,82.644C115.938,82.452 115.442,82.16 114.982,81.768C114.522,81.376 114.196,80.864 114.004,80.232C113.916,79.968 113.872,79.656 113.872,79.296L113.872,79.2C113.896,78.288 114.11,77.536 114.514,76.944C114.918,76.352 115.448,75.92 116.104,75.648C116.76,75.376 117.48,75.24 118.264,75.24C119.112,75.24 119.944,75.384 120.76,75.672C121.328,75.88 121.86,76.116 122.356,76.38C122.556,76.484 122.716,76.632 122.836,76.824C122.956,77.016 123.016,77.228 123.016,77.46C123.016,77.796 122.898,78.082 122.662,78.318C122.426,78.554 122.14,78.672 121.804,78.672C121.604,78.672 121.416,78.628 121.24,78.54C120.576,78.196 120.03,77.968 119.602,77.856C119.174,77.744 118.74,77.688 118.3,77.688C117.788,77.688 117.386,77.748 117.094,77.868C116.802,77.988 116.598,78.16 116.482,78.384C116.366,78.608 116.304,78.9 116.296,79.26L116.296,79.296C116.304,79.688 116.54,79.996 117.004,80.22C117.468,80.444 118.02,80.628 118.66,80.772Z" style="fill:rgb(0,84,174);fill-rule:nonzero;"/>
            </g>
            <path d="M137.524,85.944L137.524,86.004C137.524,86.028 137.52,86.048 137.512,86.064L137.512,86.124C137.512,86.148 137.508,86.168 137.5,86.184C137.5,86.208 137.496,86.228 137.488,86.244C137.488,86.268 137.484,86.284 137.476,86.292L137.464,86.352L137.416,86.472L137.392,86.52C137.392,86.536 137.384,86.552 137.368,86.568L137.332,86.628L137.308,86.676L137.236,86.772L137.14,86.868C136.524,87.444 135.828,87.888 135.052,88.2C134.244,88.528 133.408,88.692 132.544,88.692C131.856,88.692 131.192,88.588 130.552,88.38C129.936,88.196 129.348,87.916 128.788,87.54C128.252,87.18 127.776,86.748 127.36,86.244C126.944,85.74 126.612,85.188 126.364,84.588C126.012,83.772 125.836,82.9 125.836,81.972C125.836,81.252 125.936,80.588 126.136,79.98C126.32,79.364 126.6,78.776 126.976,78.216C127.336,77.68 127.768,77.204 128.272,76.788C128.776,76.372 129.328,76.04 129.928,75.792C130.744,75.44 131.616,75.264 132.544,75.264C133.424,75.264 134.276,75.432 135.1,75.768C135.892,76.096 136.592,76.552 137.2,77.136L137.26,77.196C137.276,77.212 137.284,77.224 137.284,77.232C137.284,77.232 137.3,77.248 137.332,77.28L137.368,77.328L137.392,77.376L137.428,77.436L137.476,77.532C137.484,77.54 137.488,77.55 137.488,77.562C137.488,77.574 137.492,77.584 137.5,77.592L137.512,77.652C137.52,77.66 137.524,77.67 137.524,77.682C137.524,77.694 137.528,77.704 137.536,77.712L137.548,77.76C137.548,77.784 137.552,77.804 137.56,77.82L137.56,77.88C137.568,77.888 137.572,77.904 137.572,77.928L137.572,78.12C137.564,78.136 137.56,78.156 137.56,78.18L137.524,78.36L137.5,78.408L137.488,78.468L137.464,78.516L137.428,78.576L137.404,78.624L137.368,78.684C137.368,78.692 137.364,78.7 137.356,78.708C137.348,78.716 137.34,78.724 137.332,78.732L137.308,78.78C137.284,78.788 137.268,78.804 137.26,78.828L137.224,78.864L137.164,78.912L137.08,78.996L137.032,79.02L136.948,79.08L136.888,79.104L136.828,79.14L136.78,79.152L136.672,79.188L136.6,79.2C136.584,79.208 136.564,79.212 136.54,79.212L136.48,79.224L136.24,79.224C136.216,79.224 136.2,79.22 136.192,79.212L136.12,79.212L136.06,79.188C136.036,79.188 136.02,79.184 136.012,79.176L135.952,79.164L135.892,79.14L135.844,79.116L135.784,79.092L135.736,79.056L135.688,79.032L135.592,78.96C135.56,78.928 135.544,78.912 135.544,78.912C135.536,78.912 135.524,78.904 135.508,78.888C135.116,78.512 134.672,78.22 134.176,78.012C133.64,77.796 133.096,77.688 132.544,77.688C132.104,77.688 131.68,77.756 131.272,77.892C130.872,78.012 130.5,78.188 130.156,78.42C129.436,78.908 128.916,79.536 128.596,80.304C128.372,80.84 128.26,81.396 128.26,81.972C128.26,82.396 128.324,82.82 128.452,83.244C128.58,83.644 128.76,84.02 128.992,84.372C129.472,85.076 130.1,85.592 130.876,85.92C131.412,86.144 131.968,86.256 132.544,86.256C133.104,86.256 133.636,86.152 134.14,85.944C134.636,85.744 135.08,85.46 135.472,85.092C135.488,85.092 135.496,85.084 135.496,85.068L135.64,84.96L135.7,84.936L135.736,84.9C135.76,84.9 135.78,84.892 135.796,84.876C135.812,84.876 135.828,84.868 135.844,84.852L135.904,84.84L135.952,84.816L136.024,84.804C136.032,84.796 136.048,84.792 136.072,84.792C136.088,84.784 136.112,84.78 136.144,84.78L136.192,84.768L136.432,84.768L136.528,84.792L136.552,84.792C136.64,84.808 136.716,84.832 136.78,84.864L136.804,84.876L136.888,84.912L136.936,84.948C136.944,84.956 136.952,84.962 136.96,84.966C136.968,84.97 136.98,84.976 136.996,84.984C137.004,84.984 137.016,84.992 137.032,85.008L137.092,85.056L137.26,85.224L137.332,85.32C137.332,85.328 137.34,85.348 137.356,85.38L137.392,85.428L137.416,85.476C137.416,85.484 137.424,85.504 137.44,85.536L137.452,85.596L137.476,85.644L137.512,85.824L137.512,85.884L137.524,85.944Z" style="fill:rgb(0,84,174);fill-rule:nonzero;"/>
            <path d="M149.788,86.532C149.964,86.748 150.052,86.996 150.052,87.276C150.052,87.612 149.932,87.898 149.692,88.134C149.452,88.37 149.164,88.488 148.828,88.488C148.644,88.488 148.468,88.446 148.3,88.362C148.132,88.278 147.988,88.164 147.868,88.02L144.832,84.096L141.856,84.096L141.856,87.276C141.856,87.612 141.738,87.898 141.502,88.134C141.266,88.37 140.98,88.488 140.644,88.488C140.308,88.488 140.022,88.37 139.786,88.134C139.55,87.898 139.432,87.612 139.432,87.276L139.432,76.692C139.432,76.356 139.55,76.068 139.786,75.828C140.022,75.588 140.308,75.468 140.644,75.468L145.744,75.468C146.52,75.468 147.238,75.662 147.898,76.05C148.558,76.438 149.082,76.962 149.47,77.622C149.858,78.282 150.052,79 150.052,79.776C150.052,80.616 149.828,81.386 149.38,82.086C148.932,82.786 148.336,83.316 147.592,83.676L149.788,86.532ZM146.296,81.576C146.728,81.448 147.054,81.222 147.274,80.898C147.494,80.574 147.604,80.212 147.604,79.812C147.604,79.484 147.53,79.174 147.382,78.882C147.234,78.59 147.018,78.354 146.734,78.174C146.45,77.994 146.116,77.904 145.732,77.904L141.856,77.904L141.856,81.66L145.732,81.66C145.9,81.66 146.088,81.632 146.296,81.576Z" style="fill:rgb(0,84,174);fill-rule:nonzero;"/>
            <path d="M154.768,87.252C154.768,87.588 154.65,87.876 154.414,88.116C154.178,88.356 153.892,88.476 153.556,88.476C153.22,88.476 152.932,88.356 152.692,88.116C152.452,87.876 152.332,87.588 152.332,87.252L152.344,87.24L152.332,87.24L152.332,76.656C152.332,76.32 152.452,76.032 152.692,75.792C152.932,75.552 153.22,75.432 153.556,75.432C153.892,75.432 154.178,75.552 154.414,75.792C154.65,76.032 154.768,76.32 154.768,76.656L154.768,87.252Z" style="fill:rgb(0,84,174);fill-rule:nonzero;"/>
            <path d="M166.912,78.288C167.152,78.872 167.272,79.472 167.272,80.088C167.272,80.552 167.204,81.008 167.068,81.456C166.94,81.872 166.744,82.276 166.48,82.668C166.232,83.036 165.936,83.362 165.592,83.646C165.248,83.93 164.868,84.16 164.452,84.336C163.9,84.576 163.304,84.696 162.664,84.696L159.508,84.696L159.508,87.276C159.508,87.612 159.39,87.898 159.154,88.134C158.918,88.37 158.632,88.488 158.296,88.488C157.96,88.488 157.674,88.37 157.438,88.134C157.202,87.898 157.084,87.612 157.084,87.276L157.084,76.692C157.084,76.356 157.202,76.068 157.438,75.828C157.674,75.588 157.96,75.468 158.296,75.468L162.664,75.468C163.144,75.468 163.6,75.54 164.032,75.684C164.472,75.82 164.876,76.012 165.244,76.26C165.612,76.508 165.938,76.804 166.222,77.148C166.506,77.492 166.736,77.872 166.912,78.288ZM164.668,80.94C164.78,80.668 164.836,80.384 164.836,80.088C164.836,79.84 164.804,79.624 164.74,79.44C164.684,79.248 164.592,79.056 164.464,78.864C164.232,78.512 163.912,78.248 163.504,78.072C163.24,77.96 162.96,77.904 162.664,77.904L159.508,77.904L159.508,82.272L162.664,82.272C162.896,82.272 163.112,82.236 163.312,82.164C163.504,82.108 163.692,82.02 163.876,81.9C164.228,81.652 164.492,81.332 164.668,80.94Z" style="fill:rgb(0,84,174);fill-rule:nonzero;"/>
            <path d="M178.432,75.468C178.768,75.468 179.056,75.588 179.296,75.828C179.536,76.068 179.656,76.356 179.656,76.692C179.656,77.028 179.536,77.314 179.296,77.55C179.056,77.786 178.768,77.904 178.432,77.904L175.216,77.904L175.216,87.276C175.216,87.612 175.096,87.898 174.856,88.134C174.616,88.37 174.328,88.488 173.992,88.488C173.656,88.488 173.37,88.37 173.134,88.134C172.898,87.898 172.78,87.612 172.78,87.276L172.78,77.904L169.552,77.904C169.216,77.904 168.93,77.786 168.694,77.55C168.458,77.314 168.34,77.028 168.34,76.692C168.34,76.356 168.458,76.068 168.694,75.828C168.93,75.588 169.216,75.468 169.552,75.468L178.432,75.468Z" style="fill:rgb(0,84,174);fill-rule:nonzero;"/>
            <path d="M187.108,75.156C188.356,75.156 189.508,75.466 190.564,76.086C191.62,76.706 192.456,77.544 193.072,78.6C193.688,79.656 193.996,80.808 193.996,82.056C193.996,83.304 193.688,84.454 193.072,85.506C192.456,86.558 191.62,87.394 190.564,88.014C189.508,88.634 188.356,88.944 187.108,88.944C185.86,88.944 184.708,88.634 183.652,88.014C182.596,87.394 181.76,86.558 181.144,85.506C180.528,84.454 180.22,83.304 180.22,82.056C180.22,80.816 180.524,79.67 181.132,78.618C181.74,77.566 182.564,76.73 183.604,76.11C184.644,75.49 185.784,75.172 187.024,75.156L187.108,75.156ZM187.108,86.508C187.916,86.508 188.66,86.308 189.34,85.908C190.02,85.508 190.562,84.968 190.966,84.288C191.37,83.608 191.572,82.864 191.572,82.056C191.572,81.248 191.372,80.502 190.972,79.818C190.572,79.134 190.03,78.592 189.346,78.192C188.662,77.792 187.916,77.592 187.108,77.592C186.3,77.592 185.554,77.792 184.87,78.192C184.186,78.592 183.644,79.134 183.244,79.818C182.844,80.502 182.644,81.248 182.644,82.056C182.644,82.968 182.896,83.794 183.4,84.534C183.904,85.274 184.56,85.816 185.368,86.16C185.92,86.392 186.5,86.508 187.108,86.508Z" style="fill:rgb(0,84,174);fill-rule:nonzero;"/>
            <path d="M206.224,86.532C206.4,86.748 206.488,86.996 206.488,87.276C206.488,87.612 206.368,87.898 206.128,88.134C205.888,88.37 205.6,88.488 205.264,88.488C205.08,88.488 204.904,88.446 204.736,88.362C204.568,88.278 204.424,88.164 204.304,88.02L201.268,84.096L198.292,84.096L198.292,87.276C198.292,87.612 198.174,87.898 197.938,88.134C197.702,88.37 197.416,88.488 197.08,88.488C196.744,88.488 196.458,88.37 196.222,88.134C195.986,87.898 195.868,87.612 195.868,87.276L195.868,76.692C195.868,76.356 195.986,76.068 196.222,75.828C196.458,75.588 196.744,75.468 197.08,75.468L202.18,75.468C202.956,75.468 203.674,75.662 204.334,76.05C204.994,76.438 205.518,76.962 205.906,77.622C206.294,78.282 206.488,79 206.488,79.776C206.488,80.616 206.264,81.386 205.816,82.086C205.368,82.786 204.772,83.316 204.028,83.676L206.224,86.532ZM202.732,81.576C203.164,81.448 203.49,81.222 203.71,80.898C203.93,80.574 204.04,80.212 204.04,79.812C204.04,79.484 203.966,79.174 203.818,78.882C203.67,78.59 203.454,78.354 203.17,78.174C202.886,77.994 202.552,77.904 202.168,77.904L198.292,77.904L198.292,81.66L202.168,81.66C202.336,81.66 202.524,81.632 202.732,81.576Z" style="fill:rgb(0,84,174);fill-rule:nonzero;"/>
        </g>
    </g>
</svg>
